<svg xmlns="http://www.w3.org/2000/svg" width="1200" height="632" viewBox="0 0 1200 632" font-family="'Inter','Segoe UI',-apple-system,BlinkMacSystemFont,Helvetica,Arial,sans-serif">
<defs>
  <linearGradient id="bg" x1="0" y1="0" x2="1" y2="1">
    <stop offset="0" stop-color="#FFFFFF"/><stop offset="1" stop-color="#F5F8FF"/>
  </linearGradient>
  <linearGradient id="accent" x1="0" y1="0" x2="1" y2="0">
    <stop offset="0" stop-color="#0891B2"/><stop offset="0.5" stop-color="#2563EB"/><stop offset="1" stop-color="#7C3AED"/>
  </linearGradient>
  <linearGradient id="cardg" x1="0" y1="0" x2="0" y2="1">
    <stop offset="0" stop-color="#FFFFFF"/><stop offset="1" stop-color="#FFFFFF"/>
  </linearGradient>
  <pattern id="grid" width="32" height="32" patternUnits="userSpaceOnUse">
    <path d="M32 0H0V32" fill="none" stroke="#E8EDF7" stroke-width="1" opacity="0.8"/>
  </pattern>
  <radialGradient id="glowc" cx="0.5" cy="0.5" r="0.5">
    <stop offset="0" stop-color="#0891B2" stop-opacity="0.12"/><stop offset="1" stop-color="#0891B2" stop-opacity="0"/>
  </radialGradient>
  <radialGradient id="glowv" cx="0.5" cy="0.5" r="0.5">
    <stop offset="0" stop-color="#7C3AED" stop-opacity="0.12"/><stop offset="1" stop-color="#7C3AED" stop-opacity="0"/>
  </radialGradient>
  <filter id="sh" x="-5%" y="-10%" width="110%" height="130%"><feDropShadow dx="0" dy="4" stdDeviation="6" flood-color="#1E2A55" flood-opacity="0.07"/></filter>
  <clipPath id="frame"><rect width="1200" height="632" rx="18"/></clipPath>
</defs>
<style>
  text { font-family: 'Inter','Segoe UI',-apple-system,BlinkMacSystemFont,Helvetica,Arial,sans-serif; }
  .mono { font-family: 'JetBrains Mono','SFMono-Regular',Consolas,'Liberation Mono',Menlo,monospace; }
  
</style>
<rect width="1200" height="632" rx="18" fill="url(#bg)"/>
<rect width="1200" height="632" rx="18" fill="url(#grid)"/>
<g clip-path="url(#frame)"><text x="48" y="34" class="mono" font-size="13" letter-spacing="3" fill="#0891B2">SELECTED WORK</text><text x="48" y="68" font-size="28" font-weight="700" fill="#0F172A">Featured projects</text><rect x="48" y="82" width="56" height="3" rx="1.5" fill="url(#accent)"/><g transform="translate(48,120)"><rect width="540" height="236" rx="16" fill="url(#cardg)" stroke="#E3E8F2" filter="url(#sh)"/><rect x="0" y="0" width="540" height="3" rx="1.5" fill="#0891B2" opacity="0.85"/><text x="512" y="62" text-anchor="end" font-size="54" font-weight="800" fill="#0891B2" fill-opacity="0.12">01</text><text x="28" y="50" font-size="21" font-weight="700" fill="#0F172A">Enterprise AI Sales Agent</text><text x="28" y="78" font-size="14" fill="#5B6680">Autonomous agent covering the full lead lifecycle.</text><rect x="28" y="107" width="8" height="8" rx="2" fill="#0891B2"/><text x="46" y="116" font-size="14" fill="#0F172A">Lead qualification</text><rect x="278" y="107" width="8" height="8" rx="2" fill="#0891B2"/><text x="296" y="116" font-size="14" fill="#0F172A">Customer profiling</text><rect x="28" y="137" width="8" height="8" rx="2" fill="#0891B2"/><text x="46" y="146" font-size="14" fill="#0F172A">Auto follow-ups</text><rect x="278" y="137" width="8" height="8" rx="2" fill="#0891B2"/><text x="296" y="146" font-size="14" fill="#0F172A">CRM sync</text><line x1="28" y1="180" x2="512" y2="180" stroke="#E3E8F2"/><text x="28" y="210" class="mono" font-size="12" letter-spacing="0.5" fill="#0891B2">LLMs  /  n8n  /  Zoho CRM  /  Webhooks</text></g><g transform="translate(612,120)"><rect width="540" height="236" rx="16" fill="url(#cardg)" stroke="#E3E8F2" filter="url(#sh)"/><rect x="0" y="0" width="540" height="3" rx="1.5" fill="#2563EB" opacity="0.85"/><text x="512" y="62" text-anchor="end" font-size="54" font-weight="800" fill="#2563EB" fill-opacity="0.12">02</text><text x="28" y="50" font-size="21" font-weight="700" fill="#0F172A">RAG Knowledge Assistant</text><text x="28" y="78" font-size="14" fill="#5B6680">Grounded answers from internal knowledge sources.</text><rect x="28" y="107" width="8" height="8" rx="2" fill="#2563EB"/><text x="46" y="116" font-size="14" fill="#0F172A">Document ingestion</text><rect x="278" y="107" width="8" height="8" rx="2" fill="#2563EB"/><text x="296" y="116" font-size="14" fill="#0F172A">Embeddings</text><rect x="28" y="137" width="8" height="8" rx="2" fill="#2563EB"/><text x="46" y="146" font-size="14" fill="#0F172A">Semantic search</text><rect x="278" y="137" width="8" height="8" rx="2" fill="#2563EB"/><text x="296" y="146" font-size="14" fill="#0F172A">Grounded generation</text><line x1="28" y1="180" x2="512" y2="180" stroke="#E3E8F2"/><text x="28" y="210" class="mono" font-size="12" letter-spacing="0.5" fill="#2563EB">Python  /  Embeddings  /  Vector DB  /  LLMs</text></g><g transform="translate(48,372)"><rect width="540" height="236" rx="16" fill="url(#cardg)" stroke="#E3E8F2" filter="url(#sh)"/><rect x="0" y="0" width="540" height="3" rx="1.5" fill="#7C3AED" opacity="0.85"/><text x="512" y="62" text-anchor="end" font-size="54" font-weight="800" fill="#7C3AED" fill-opacity="0.12">03</text><text x="28" y="50" font-size="21" font-weight="700" fill="#0F172A">Multi-Agent System</text><text x="28" y="78" font-size="14" fill="#5B6680">Planner, executor and reviewer agents collaborating.</text><rect x="28" y="107" width="8" height="8" rx="2" fill="#7C3AED"/><text x="46" y="116" font-size="14" fill="#0F172A">Task decomposition</text><rect x="278" y="107" width="8" height="8" rx="2" fill="#7C3AED"/><text x="296" y="116" font-size="14" fill="#0F172A">Autonomous execution</text><rect x="28" y="137" width="8" height="8" rx="2" fill="#7C3AED"/><text x="46" y="146" font-size="14" fill="#0F172A">Result validation</text><rect x="278" y="137" width="8" height="8" rx="2" fill="#7C3AED"/><text x="296" y="146" font-size="14" fill="#0F172A">Orchestration</text><line x1="28" y1="180" x2="512" y2="180" stroke="#E3E8F2"/><text x="28" y="210" class="mono" font-size="12" letter-spacing="0.5" fill="#7C3AED">LangGraph  /  LLMs  /  Python</text></g><g transform="translate(612,372)"><rect width="540" height="236" rx="16" fill="url(#cardg)" stroke="#E3E8F2" filter="url(#sh)"/><rect x="0" y="0" width="540" height="3" rx="1.5" fill="#0891B2" opacity="0.85"/><text x="512" y="62" text-anchor="end" font-size="54" font-weight="800" fill="#0891B2" fill-opacity="0.12">04</text><text x="28" y="50" font-size="21" font-weight="700" fill="#0F172A">AI Content Pipeline</text><text x="28" y="78" font-size="14" fill="#5B6680">From topic to publish-ready content, end to end.</text><rect x="28" y="107" width="8" height="8" rx="2" fill="#0891B2"/><text x="46" y="116" font-size="14" fill="#0F172A">AI research</text><rect x="278" y="107" width="8" height="8" rx="2" fill="#0891B2"/><text x="296" y="116" font-size="14" fill="#0F172A">Generation</text><rect x="28" y="137" width="8" height="8" rx="2" fill="#0891B2"/><text x="46" y="146" font-size="14" fill="#0F172A">Review loop</text><rect x="278" y="137" width="8" height="8" rx="2" fill="#0891B2"/><text x="296" y="146" font-size="14" fill="#0F172A">Auto publishing</text><line x1="28" y1="180" x2="512" y2="180" stroke="#E3E8F2"/><text x="28" y="210" class="mono" font-size="12" letter-spacing="0.5" fill="#0891B2">LLMs  /  n8n  /  APIs</text></g></g>
<rect x="0.5" y="0.5" width="1199" height="631" rx="18" fill="none" stroke="#E3E8F2"/>
</svg>
