<svg xmlns="http://www.w3.org/2000/svg" width="1200" height="450" viewBox="0 0 1200 450" font-family="'Inter','Segoe UI',-apple-system,BlinkMacSystemFont,Helvetica,Arial,sans-serif">
<defs>
  <linearGradient id="bg" x1="0" y1="0" x2="1" y2="1">
    <stop offset="0" stop-color="#070B18"/><stop offset="1" stop-color="#0E1530"/>
  </linearGradient>
  <linearGradient id="accent" x1="0" y1="0" x2="1" y2="0">
    <stop offset="0" stop-color="#22D3EE"/><stop offset="0.5" stop-color="#3B82F6"/><stop offset="1" stop-color="#8B5CF6"/>
  </linearGradient>
  <linearGradient id="cardg" x1="0" y1="0" x2="0" y2="1">
    <stop offset="0" stop-color="#121B3A"/><stop offset="1" stop-color="#0F1630"/>
  </linearGradient>
  <pattern id="grid" width="32" height="32" patternUnits="userSpaceOnUse">
    <path d="M32 0H0V32" fill="none" stroke="#18224A" stroke-width="1" opacity="0.55"/>
  </pattern>
  <radialGradient id="glowc" cx="0.5" cy="0.5" r="0.5">
    <stop offset="0" stop-color="#22D3EE" stop-opacity="0.35"/><stop offset="1" stop-color="#22D3EE" stop-opacity="0"/>
  </radialGradient>
  <radialGradient id="glowv" cx="0.5" cy="0.5" r="0.5">
    <stop offset="0" stop-color="#8B5CF6" stop-opacity="0.35"/><stop offset="1" stop-color="#8B5CF6" stop-opacity="0"/>
  </radialGradient>
  <clipPath id="frame"><rect width="1200" height="450" rx="18"/></clipPath>
</defs>
<style>
  text { font-family: 'Inter','Segoe UI',-apple-system,BlinkMacSystemFont,Helvetica,Arial,sans-serif; }
  .mono { font-family: 'JetBrains Mono','SFMono-Regular',Consolas,'Liberation Mono',Menlo,monospace; }
  
</style>
<rect width="1200" height="450" rx="18" fill="url(#bg)"/>
<rect width="1200" height="450" rx="18" fill="url(#grid)"/>
<g clip-path="url(#frame)"><text x="48" y="34" class="mono" font-size="13" letter-spacing="3" fill="#22D3EE">TOOLKIT</text><text x="48" y="68" font-size="28" font-weight="700" fill="#E8EEF9">Tech stack</text><rect x="48" y="82" width="56" height="3" rx="1.5" fill="url(#accent)"/><g transform="translate(48,120)"><rect width="540" height="140" rx="14" fill="url(#cardg)" stroke="#1F2A4D"/><circle cx="26" cy="30" r="5" fill="#22D3EE"/><text x="40" y="35" class="mono" font-size="12" letter-spacing="2" fill="#22D3EE">ARTIFICIAL INTELLIGENCE</text><g transform="translate(22,56)"><rect width="74" height="30" rx="15.0" fill="#22D3EE" fill-opacity="0.08" stroke="#22D3EE" stroke-opacity="0.45"/><text x="37.0" y="19.68" text-anchor="middle" font-size="13" font-weight="500" fill="#E8EEF9">Python</text></g><g transform="translate(104,56)"><rect width="98" height="30" rx="15.0" fill="#22D3EE" fill-opacity="0.08" stroke="#22D3EE" stroke-opacity="0.45"/><text x="49.0" y="19.68" text-anchor="middle" font-size="13" font-weight="500" fill="#E8EEF9">LangChain</text></g><g transform="translate(210,56)"><rect width="98" height="30" rx="15.0" fill="#22D3EE" fill-opacity="0.08" stroke="#22D3EE" stroke-opacity="0.45"/><text x="49.0" y="19.68" text-anchor="middle" font-size="13" font-weight="500" fill="#E8EEF9">LangGraph</text></g><g transform="translate(316,56)"><rect width="51" height="30" rx="15.0" fill="#22D3EE" fill-opacity="0.08" stroke="#22D3EE" stroke-opacity="0.45"/><text x="25.5" y="19.68" text-anchor="middle" font-size="13" font-weight="500" fill="#E8EEF9">RAG</text></g><g transform="translate(375,56)"><rect width="59" height="30" rx="15.0" fill="#22D3EE" fill-opacity="0.08" stroke="#22D3EE" stroke-opacity="0.45"/><text x="29.5" y="19.68" text-anchor="middle" font-size="13" font-weight="500" fill="#E8EEF9">LLMs</text></g><g transform="translate(22,96)"><rect width="106" height="30" rx="15.0" fill="#22D3EE" fill-opacity="0.08" stroke="#22D3EE" stroke-opacity="0.45"/><text x="53.0" y="19.68" text-anchor="middle" font-size="13" font-weight="500" fill="#E8EEF9">Agentic AI</text></g><g transform="translate(136,96)"><rect width="106" height="30" rx="15.0" fill="#22D3EE" fill-opacity="0.08" stroke="#22D3EE" stroke-opacity="0.45"/><text x="53.0" y="19.68" text-anchor="middle" font-size="13" font-weight="500" fill="#E8EEF9">Vector DBs</text></g></g><g transform="translate(612,120)"><rect width="540" height="140" rx="14" fill="url(#cardg)" stroke="#1F2A4D"/><circle cx="26" cy="30" r="5" fill="#3B82F6"/><text x="40" y="35" class="mono" font-size="12" letter-spacing="2" fill="#3B82F6">AUTOMATION &amp; CRM</text><g transform="translate(22,56)"><rect width="51" height="30" rx="15.0" fill="#3B82F6" fill-opacity="0.08" stroke="#3B82F6" stroke-opacity="0.45"/><text x="25.5" y="19.68" text-anchor="middle" font-size="13" font-weight="500" fill="#E8EEF9">n8n</text></g><g transform="translate(81,56)"><rect width="74" height="30" rx="15.0" fill="#3B82F6" fill-opacity="0.08" stroke="#3B82F6" stroke-opacity="0.45"/><text x="37.0" y="19.68" text-anchor="middle" font-size="13" font-weight="500" fill="#E8EEF9">Zapier</text></g><g transform="translate(163,56)"><rect width="59" height="30" rx="15.0" fill="#3B82F6" fill-opacity="0.08" stroke="#3B82F6" stroke-opacity="0.45"/><text x="29.5" y="19.68" text-anchor="middle" font-size="13" font-weight="500" fill="#E8EEF9">Make</text></g><g transform="translate(230,56)"><rect width="90" height="30" rx="15.0" fill="#3B82F6" fill-opacity="0.08" stroke="#3B82F6" stroke-opacity="0.45"/><text x="45.0" y="19.68" text-anchor="middle" font-size="13" font-weight="500" fill="#E8EEF9">Zoho CRM</text></g><g transform="translate(328,56)"><rect width="106" height="30" rx="15.0" fill="#3B82F6" fill-opacity="0.08" stroke="#3B82F6" stroke-opacity="0.45"/><text x="53.0" y="19.68" text-anchor="middle" font-size="13" font-weight="500" fill="#E8EEF9">Salesforce</text></g><g transform="translate(22,96)"><rect width="90" height="30" rx="15.0" fill="#3B82F6" fill-opacity="0.08" stroke="#3B82F6" stroke-opacity="0.45"/><text x="45.0" y="19.68" text-anchor="middle" font-size="13" font-weight="500" fill="#E8EEF9">Webhooks</text></g><g transform="translate(120,96)"><rect width="145" height="30" rx="15.0" fill="#3B82F6" fill-opacity="0.08" stroke="#3B82F6" stroke-opacity="0.45"/><text x="72.5" y="19.68" text-anchor="middle" font-size="13" font-weight="500" fill="#E8EEF9">API Integration</text></g></g><g transform="translate(48,286)"><rect width="540" height="140" rx="14" fill="url(#cardg)" stroke="#1F2A4D"/><circle cx="26" cy="30" r="5" fill="#8B5CF6"/><text x="40" y="35" class="mono" font-size="12" letter-spacing="2" fill="#8B5CF6">BACKEND &amp; CLOUD</text><g transform="translate(22,56)"><rect width="82" height="30" rx="15.0" fill="#8B5CF6" fill-opacity="0.08" stroke="#8B5CF6" stroke-opacity="0.45"/><text x="41.0" y="19.68" text-anchor="middle" font-size="13" font-weight="500" fill="#E8EEF9">FastAPI</text></g><g transform="translate(112,56)"><rect width="106" height="30" rx="15.0" fill="#8B5CF6" fill-opacity="0.08" stroke="#8B5CF6" stroke-opacity="0.45"/><text x="53.0" y="19.68" text-anchor="middle" font-size="13" font-weight="500" fill="#E8EEF9">PostgreSQL</text></g><g transform="translate(226,56)"><rect width="82" height="30" rx="15.0" fill="#8B5CF6" fill-opacity="0.08" stroke="#8B5CF6" stroke-opacity="0.45"/><text x="41.0" y="19.68" text-anchor="middle" font-size="13" font-weight="500" fill="#E8EEF9">MongoDB</text></g><g transform="translate(316,56)"><rect width="74" height="30" rx="15.0" fill="#8B5CF6" fill-opacity="0.08" stroke="#8B5CF6" stroke-opacity="0.45"/><text x="37.0" y="19.68" text-anchor="middle" font-size="13" font-weight="500" fill="#E8EEF9">Docker</text></g><g transform="translate(398,56)"><rect width="113" height="30" rx="15.0" fill="#8B5CF6" fill-opacity="0.08" stroke="#8B5CF6" stroke-opacity="0.45"/><text x="56.5" y="19.68" text-anchor="middle" font-size="13" font-weight="500" fill="#E8EEF9">AWS Bedrock</text></g><g transform="translate(22,96)"><rect width="98" height="30" rx="15.0" fill="#8B5CF6" fill-opacity="0.08" stroke="#8B5CF6" stroke-opacity="0.45"/><text x="49.0" y="19.68" text-anchor="middle" font-size="13" font-weight="500" fill="#E8EEF9">Vertex AI</text></g></g><g transform="translate(612,286)"><rect width="540" height="140" rx="14" fill="url(#cardg)" stroke="#1F2A4D"/><circle cx="26" cy="30" r="5" fill="#22D3EE"/><text x="40" y="35" class="mono" font-size="12" letter-spacing="2" fill="#22D3EE">APPLICATIONS</text><g transform="translate(22,56)"><rect width="82" height="30" rx="15.0" fill="#22D3EE" fill-opacity="0.08" stroke="#22D3EE" stroke-opacity="0.45"/><text x="41.0" y="19.68" text-anchor="middle" font-size="13" font-weight="500" fill="#E8EEF9">Flutter</text></g><g transform="translate(112,56)"><rect width="59" height="30" rx="15.0" fill="#22D3EE" fill-opacity="0.08" stroke="#22D3EE" stroke-opacity="0.45"/><text x="29.5" y="19.68" text-anchor="middle" font-size="13" font-weight="500" fill="#E8EEF9">Dart</text></g><g transform="translate(179,56)"><rect width="67" height="30" rx="15.0" fill="#22D3EE" fill-opacity="0.08" stroke="#22D3EE" stroke-opacity="0.45"/><text x="33.5" y="19.68" text-anchor="middle" font-size="13" font-weight="500" fill="#E8EEF9">React</text></g><g transform="translate(254,56)"><rect width="98" height="30" rx="15.0" fill="#22D3EE" fill-opacity="0.08" stroke="#22D3EE" stroke-opacity="0.45"/><text x="49.0" y="19.68" text-anchor="middle" font-size="13" font-weight="500" fill="#E8EEF9">Streamlit</text></g></g></g>
<rect x="0.5" y="0.5" width="1199" height="449" rx="18" fill="none" stroke="#1F2A4D"/>
</svg>
